<svg width="60" height="60" viewBox="0 0 60 60" fill="none" xmlns="http://www.w3.org/2000/svg">
<path d="M52.2998 14.5001L53.5273 13.778C53.7933 13.6216 53.8927 13.2858 53.7547 13.0098V13.0098C53.6127 12.7259 53.7222 12.3806 54.0018 12.2304L54.1018 12.1767C54.4355 11.9974 54.8512 12.1145 55.0424 12.4415L57.6629 16.9238C57.8453 17.2357 57.726 17.6369 57.4028 17.7985L57.3088 17.8455C57.1243 17.9378 56.9014 17.9016 56.7555 17.7557V17.7557C56.6041 17.6044 56.3708 17.5718 56.1837 17.6757L54.6998 18.5001" stroke="#808080" stroke-width="0.8"/>
<path d="M54 13.5L56.5 17.5M52.5 14.5L55 19" stroke="#808080" stroke-width="0.5"/>
<path d="M52.2998 45.3554L53.5273 46.0774C53.7933 46.2339 53.8927 46.5696 53.7547 46.8457V46.8457C53.6127 47.1296 53.7222 47.4748 54.0018 47.625L54.1018 47.6788C54.4355 47.858 54.8512 47.741 55.0424 47.414L57.6629 42.9317C57.8453 42.6197 57.726 42.2186 57.4028 42.057L57.3088 42.01C57.1243 41.9177 56.9014 41.9539 56.7555 42.0997V42.0997C56.6041 42.2511 56.3708 42.2837 56.1837 42.1798L54.6998 41.3554" stroke="#808080" stroke-width="0.8"/>
<path d="M54 46.5L56.5 42M52.5 45.5L55 41" stroke="#808080" stroke-width="0.5"/>
<path d="M56.5 26.5H57.5C58.6046 26.5 59.5 27.3954 59.5 28.5V31.5C59.5 32.6046 58.6046 33.5 57.5 33.5H56.5" stroke="#808080" stroke-width="0.8"/>
<path d="M57 28H59.5M57 30H59.5M57 32H59.5" stroke="#808080" stroke-width="0.5"/>
<path d="M16.5 8.95474H16V9.87053L16.7704 9.37534L16.5 8.95474ZM16.5 0.5H17C17 0.315602 16.8985 0.146172 16.7359 0.0591627C16.5733 -0.0278468 16.3761 -0.0183105 16.2226 0.0839748L16.5 0.5ZM13.5 2.5L13.2226 2.08397C13.1611 2.12504 13.1093 2.17927 13.0713 2.24275L13.5 2.5ZM16.7704 9.37534C20.5859 6.92272 25.126 5.5 30 5.5V4.5C24.9286 4.5 20.2016 5.98095 16.2296 8.53414L16.7704 9.37534ZM17 8.95474V0.5H16V8.95474H17ZM16.2226 0.0839748L13.2226 2.08397L13.7774 2.91603L16.7774 0.916025L16.2226 0.0839748ZM13.0713 2.24275C11.5588 4.76348 9.04834 9.78528 7.55279 12.7764L8.44721 13.2236C9.95166 10.2147 12.4412 5.23652 13.9287 2.75725L13.0713 2.24275ZM7.55279 12.7764C5.45438 16.9732 2.5 23.5736 2.5 30H3.5C3.5 23.8305 6.35057 17.4169 8.44721 13.2236L7.55279 12.7764Z" fill="#808080"/>
<path d="M16.5 0.5L13 12" stroke="#808080" stroke-width="0.5"/>
<path d="M16.5 51.0453H16V50.1295L16.7704 50.6247L16.5 51.0453ZM16.5 59.5H17C17 59.6844 16.8985 59.8538 16.7359 59.9408C16.5733 60.0278 16.3761 60.0183 16.2226 59.916L16.5 59.5ZM13.5 57.5L13.2226 57.916C13.1611 57.875 13.1093 57.8207 13.0713 57.7572L13.5 57.5ZM16.7704 50.6247C20.5859 53.0773 25.126 54.5 30 54.5V55.5C24.9286 55.5 20.2016 54.019 16.2296 51.4659L16.7704 50.6247ZM17 51.0453V59.5H16V51.0453H17ZM16.2226 59.916L13.2226 57.916L13.7774 57.084L16.7774 59.084L16.2226 59.916ZM13.0713 57.7572C11.5588 55.2365 9.04834 50.2147 7.55279 47.2236L8.44721 46.7764C9.95166 49.7853 12.4412 54.7635 13.9287 57.2428L13.0713 57.7572ZM7.55279 47.2236C5.45438 43.0268 2.5 36.4264 2.5 30H3.5C3.5 36.1695 6.35057 42.5831 8.44721 46.7764L7.55279 47.2236Z" fill="#808080"/>
<path d="M16.5 59.5L13 48" stroke="#808080" stroke-width="0.5"/>
<path d="M43.5 8.95474H44V9.87053L43.2296 9.37534L43.5 8.95474ZM43.5 0.5H43C43 0.315602 43.1015 0.146172 43.2641 0.0591627C43.4267 -0.0278468 43.6239 -0.0183105 43.7774 0.0839748L43.5 0.5ZM46.5 2.5L46.7774 2.08397C46.8389 2.12504 46.8907 2.17927 46.9287 2.24275L46.5 2.5ZM43.2296 9.37534C39.4141 6.92272 34.874 5.5 30 5.5V4.5C35.0714 4.5 39.7984 5.98095 43.7704 8.53414L43.2296 9.37534ZM43 8.95474V0.5H44V8.95474H43ZM43.7774 0.0839748L46.7774 2.08397L46.2226 2.91603L43.2226 0.916025L43.7774 0.0839748ZM46.9287 2.24275C48.4412 4.76348 50.9517 9.78528 52.4472 12.7764L51.5528 13.2236C50.0483 10.2147 47.5588 5.23652 46.0713 2.75725L46.9287 2.24275ZM52.4472 12.7764C54.5456 16.9732 57.5 23.5736 57.5 30H56.5C56.5 23.8305 53.6494 17.4169 51.5528 13.2236L52.4472 12.7764Z" fill="#808080"/>
<path d="M43.5 0.5L47 12" stroke="#808080" stroke-width="0.5"/>
<path d="M43.5 51.0453H44V50.1295L43.2296 50.6247L43.5 51.0453ZM43.5 59.5H43C43 59.6844 43.1015 59.8538 43.2641 59.9408C43.4267 60.0278 43.6239 60.0183 43.7774 59.916L43.5 59.5ZM46.5 57.5L46.7774 57.916C46.8389 57.875 46.8907 57.8207 46.9287 57.7572L46.5 57.5ZM43.2296 50.6247C39.4141 53.0773 34.874 54.5 30 54.5V55.5C35.0714 55.5 39.7984 54.019 43.7704 51.4659L43.2296 50.6247ZM43 51.0453V59.5H44V51.0453H43ZM43.7774 59.916L46.7774 57.916L46.2226 57.084L43.2226 59.084L43.7774 59.916ZM46.9287 57.7572C48.4412 55.2365 50.9517 50.2147 52.4472 47.2236L51.5528 46.7764C50.0483 49.7853 47.5588 54.7635 46.0713 57.2428L46.9287 57.7572ZM52.4472 47.2236C54.5456 43.0268 57.5 36.4264 57.5 30H56.5C56.5 36.1695 53.6494 42.5831 51.5528 46.7764L52.4472 47.2236Z" fill="#808080"/>
<path d="M43.5 59.5L47 48" stroke="#808080" stroke-width="0.5"/>
<path d="M5.25 30C5.25 16.331 16.331 5.25 30 5.25C43.669 5.25 54.75 16.331 54.75 30C54.75 43.669 43.669 54.75 30 54.75C16.331 54.75 5.25 43.669 5.25 30Z" stroke="#808080" stroke-width="0.5"/>
<path d="M8.25 30C8.25 17.9878 17.9878 8.25 30 8.25C42.0122 8.25 51.75 17.9878 51.75 30C51.75 42.0122 42.0122 51.75 30 51.75C17.9878 51.75 8.25 42.0122 8.25 30Z" stroke="#808080" stroke-width="0.5"/>
</svg>
