<svg width="60" height="60" viewBox="0 0 60 60" fill="none" xmlns="http://www.w3.org/2000/svg">
<g clip-path="url(#clip0_35_719)">
<path d="M29.25 54.25V51.75H30.75V54.25H29.25Z" stroke="#808080" stroke-width="0.5"/>
<path d="M51.5 29.25L54.25 29.25L54.25 30.75L51.5 30.75M9 29.25L5.75 29.25L5.75 30.75L9 30.75" stroke="#808080" stroke-width="0.5"/>
<path d="M47.898 18.8008L50.6265 17.2256L51.3765 18.5246L48.5002 20.1852M13.3874 38.7256L8.62423 41.4756L9.37423 42.7746L14.1374 40.0246L13.3874 38.7256Z" stroke="#808080" stroke-width="0.5"/>
<path d="M13.3872 21.2744L8.62402 18.5244L9.37402 17.2254L14.1372 19.9754L13.3872 21.2744Z" stroke="#808080" stroke-width="0.5"/>
<path d="M50.6263 42.7744L45.8631 40.0244L46.6131 38.7254L51.3763 41.4754L50.6263 42.7744Z" stroke="#808080" stroke-width="0.5"/>
<path d="M19.9756 14.1369L17.2256 9.37378L18.5246 8.62378L21.2746 13.3869L19.9756 14.1369Z" stroke="#808080" stroke-width="0.5"/>
<path d="M41.4756 51.376L38.7256 46.6129L40.0246 45.8629L42.7746 50.626L41.4756 51.376Z" stroke="#808080" stroke-width="0.5"/>
<path d="M38.7256 13.3869L41.4756 8.62378L42.7746 9.37378L40.0246 14.1369L38.7256 13.3869Z" stroke="#808080" stroke-width="0.5"/>
<path d="M17.2256 50.626L19.9756 45.8629L21.2746 46.6129L18.5246 51.376L17.2256 50.626Z" stroke="#808080" stroke-width="0.5"/>
<path d="M28.25 11.25V5.75H29.75V11.25H28.25Z" stroke="#808080" stroke-width="0.5"/>
<path d="M30.25 11.25V5.75H31.75V11.25H30.25Z" stroke="#808080" stroke-width="0.5"/>
<path d="M27.75 50.75V45.75H32.25V50.75H27.75Z" stroke="#808080" stroke-width="0.5"/>
<path d="M16.7296 29.0895C16.2367 29.0895 15.8374 29.4971 15.8374 30C15.8374 30.5029 16.2367 30.9106 16.7296 30.9106C17.2226 30.9106 17.6219 30.5029 17.6219 30C17.6219 29.4971 17.2226 29.0895 16.7296 29.0895ZM16.7296 29.0895C16.7296 29.0895 16.7296 26.2026 16.7296 24.3528" stroke="#808080" stroke-width="0.5"/>
<path d="M18.3987 22.2708C17.8606 22.1551 17.3022 22.0942 16.7296 22.0942C12.3633 22.0942 8.82373 25.6338 8.82373 30.0001C8.82373 34.3664 12.3633 37.906 16.7296 37.906C21.0959 37.906 24.6355 34.3664 24.6355 30.0001C24.6355 29.0609 24.4717 28.1599 24.1711 27.3241" stroke="#808080" stroke-width="0.5"/>
<path d="M35.9837 27.9479C35.8084 28.6023 35.7148 29.2902 35.7148 29.9999C35.7148 34.3662 39.2544 37.9058 43.6207 37.9058C47.987 37.9058 51.5266 34.3662 51.5266 29.9999C51.5266 26.35 49.0533 23.2778 45.6913 22.3679" stroke="#808080" stroke-width="0.5"/>
<path d="M27.83 29.8826L25.5376 31.2144L26.7276 33.3391L30.0149 31.4293M27.83 29.8826L18.9926 23.6264L18.1001 21.5017H20.4801L30.2955 28.4503M27.83 29.8826L30.2955 28.4503M30.0149 31.4293L33.5701 33.9461L35.0576 31.8215L32.4803 29.9969M30.0149 31.4293L32.4803 29.9969M30.2955 28.4503L46.9576 18.77H49.0401L48.1476 20.8947L32.4803 29.9969" stroke="#808080" stroke-width="0.5"/>
<path d="M29.7174 41.5133C29.2245 41.5133 28.8252 41.921 28.8252 42.4239C28.8252 42.9268 29.2245 43.3344 29.7174 43.3344C30.2103 43.3344 30.6097 42.9268 30.6097 42.4239C30.6097 41.921 30.2103 41.5133 29.7174 41.5133ZM29.7174 41.5133C29.7174 41.5133 29.7174 38.6264 29.7174 36.7766" stroke="#808080" stroke-width="0.5"/>
<path d="M30.8924 30.0002C30.8924 30.5031 30.4928 30.9107 29.9999 30.9107C29.507 30.9107 29.1074 30.5031 29.1074 30.0002C29.1074 29.4973 29.507 29.0896 29.9999 29.0896C30.4928 29.0896 30.8924 29.4973 30.8924 30.0002Z" stroke="#808080" stroke-width="0.5"/>
<path d="M30.5949 29.3933L35.6524 24.2334M29.4049 30.6074L15.4224 44.8729" stroke="#808080" stroke-width="0.5"/>
<path d="M43.6244 29.0898C43.1315 29.0898 42.7319 29.4974 42.7319 30.0003C42.7319 30.5032 43.1315 30.9109 43.6244 30.9109C44.1173 30.9109 44.5169 30.5032 44.5169 30.0003C44.5169 29.4974 44.1173 29.0898 43.6244 29.0898ZM43.6244 29.0898V24.2334" stroke="#808080" stroke-width="0.5"/>
<g filter="url(#filter0_d_35_719)">
<rect x="4" y="4" width="52" height="52" rx="26" stroke="#808080" stroke-width="0.8" stroke-linecap="round" stroke-dasharray="0.1 2" shape-rendering="crispEdges"/>
</g>
<rect x="2" y="2" width="56" height="56" rx="28" stroke="#808080" stroke-width="0.8" stroke-linecap="round"/>
</g>
<defs>
<filter id="filter0_d_35_719" x="-0.399902" y="3.6001" width="60.7998" height="60.7998" filterUnits="userSpaceOnUse" color-interpolation-filters="sRGB">
<feFlood flood-opacity="0" result="BackgroundImageFix"/>
<feColorMatrix in="SourceAlpha" type="matrix" values="0 0 0 0 0 0 0 0 0 0 0 0 0 0 0 0 0 0 127 0" result="hardAlpha"/>
<feOffset dy="4"/>
<feGaussianBlur stdDeviation="2"/>
<feComposite in2="hardAlpha" operator="out"/>
<feColorMatrix type="matrix" values="0 0 0 0 0 0 0 0 0 0 0 0 0 0 0 0 0 0 0.25 0"/>
<feBlend mode="normal" in2="BackgroundImageFix" result="effect1_dropShadow_35_719"/>
<feBlend mode="normal" in="SourceGraphic" in2="effect1_dropShadow_35_719" result="shape"/>
</filter>
<clipPath id="clip0_35_719">
<rect width="60" height="60" fill="white"/>
</clipPath>
</defs>
</svg>
