<svg width="60" height="60" viewBox="0 0 60 60" fill="none" xmlns="http://www.w3.org/2000/svg">
<path d="M16 2.5L8.88517 2.5C8.63073 2.5 8.37862 2.54855 8.14238 2.64305L4.75722 3.99711C3.9979 4.30084 3.5 5.03626 3.5 5.85406L3.5 19.5L5.5 19.5L5.5 21.5L5.3198 21.5C4.90558 21.5 4.5698 21.8358 4.5698 22.25V22.25C4.5698 22.6642 4.90558 23 5.3198 23L5.5 23L5.5 24.5V24.5C4.39543 24.5 3.5 25.3954 3.5 26.5L3.5 29C3.5 30.1046 4.39543 31 5.5 31V31L5.5 32.5V32.5C4.39543 32.5 3.5 33.3954 3.5 34.5L3.5 37.0025C3.5 38.1071 4.39543 39.0025 5.5 39.0025V39.0025L5.5 58" stroke="#808080" stroke-width="0.8" stroke-linecap="round" stroke-linejoin="round"/>
<path d="M16 2.5L23.1148 2.5C23.3693 2.5 23.6214 2.54855 23.8576 2.64305L27.2428 3.99711C28.0021 4.30084 28.5 5.03626 28.5 5.85406L28.5 19.5L26.5 19.5L26.5 21.5L26.6802 21.5C27.0944 21.5 27.4302 21.8358 27.4302 22.25V22.25C27.4302 22.6642 27.0944 23 26.6802 23L26.5 23L26.5 24.5V24.5C27.6046 24.5 28.5 25.3954 28.5 26.5L28.5 29C28.5 30.1046 27.6046 31 26.5 31V31L26.5 32.5V32.5C27.6046 32.5 28.5 33.3954 28.5 34.5L28.5 37.0025C28.5 38.1071 27.6046 39.0025 26.5 39.0025V39.0025L26.5 58" stroke="#808080" stroke-width="0.8" stroke-linecap="round" stroke-linejoin="round"/>
<path d="M8.75 38.8378L8.75 58" stroke="#808080" stroke-width="0.5" stroke-linecap="round" stroke-dasharray="2 2"/>
<path d="M14.2499 15.75V17.6993C14.2499 18.536 15.1633 19 15.9999 19M14.2499 15.75H5.74994M14.2499 15.75V7.25M5.74994 15.75V9.5C5.74994 8.72042 8.23231 7.25 9.18002 7.25H14.2499M5.74994 15.75V19.5M14.2499 7.25V6.54718C14.2499 5.9954 14.8958 5.25 15.4476 5.25H15.9999M5.5 21.75H8.19938C9.13966 21.75 9.17257 22.75 8.19938 22.75H5.5M5.5 30.75H15.9999M5.5 32.75H15.9999M5.5 38.75H15.9999M5.5 24.75H15.9999" stroke="#808080" stroke-width="0.5" stroke-linecap="round"/>
<path d="M17.7501 15.75V17.6993C17.7501 18.536 16.8367 19 16.0001 19M17.7501 15.75H26.2501M17.7501 15.75V7.25M26.2501 15.75V9.5C26.2501 8.72042 23.7677 7.25 22.82 7.25H17.7501M26.2501 15.75V19.5M17.7501 7.25V6.54718C17.7501 5.9954 17.1042 5.25 16.5524 5.25H16.0001M26.5 21.75H23.8006C22.8603 21.75 22.8274 22.75 23.8006 22.75H26.5M26.5 30.75H16.0001M26.5 32.75H16.0001M26.5 38.75H16.0001M26.5 24.75H16.0001" stroke="#808080" stroke-width="0.5" stroke-linecap="round"/>
<path d="M23.25 38.8378L23.25 58" stroke="#808080" stroke-width="0.5" stroke-linecap="round" stroke-dasharray="2 2"/>
<path d="M34.5 3.81697L34.5 44.0324M45.7329 57.4487L36 57.4487C35.1716 57.4487 34.5 56.7772 34.5 55.9487L34.5 52.1189M34.5 52.1189L33.5 52.1189C32.9477 52.1189 32.5 51.6712 32.5 51.1189L32.5 45.0324C32.5 44.4801 32.9477 44.0324 33.5 44.0324L34.5 44.0324M34.5 52.1189L34.5 44.0324" stroke="#808080" stroke-width="0.8" stroke-linecap="round"/>
<path d="M56.5 3.81697L56.5 44.0324M45.733 57.4487L55 57.4487C55.8284 57.4487 56.5 56.7772 56.5 55.9487L56.5 52.1189M56.5 52.1189L57.5 52.1189C58.0523 52.1189 58.5 51.6712 58.5 51.1189L58.5 45.0324C58.5 44.4801 58.0523 44.0324 57.5 44.0324L56.5 44.0324M56.5 52.1189L56.5 44.0324" stroke="#808080" stroke-width="0.8" stroke-linecap="round"/>
<path d="M49.2498 49.75V51.75H41.7498V49.75M49.2498 49.75V47.7083L45.4998 45L41.7498 47.7083V49.75M49.2498 49.75H41.7498M51.7498 30.8V36.75M51.7498 30.8V26.75M51.7498 30.8H39.2635M51.7498 19.75V26.75M51.7498 19.75V15.75M51.7498 19.75H39.2635M51.7498 7.75V15.75M51.7498 7.75V3.81689M51.7498 7.75H39.2635M51.7498 36.75V38.6217C51.7498 39.174 51.072 39.75 50.5198 39.75H40.2635C39.7112 39.75 39.2635 39.174 39.2635 38.6217V36.75M51.7498 36.75H56.1642M51.7498 26.75H56.1642M51.7498 15.75H56.1642M39.2635 30.8L39.2635 36.75M39.2635 30.8L39.2635 26.75M39.2635 19.75L39.2635 26.75M39.2635 19.75L39.2635 15.75M39.2635 7.75L39.2635 15.75M39.2635 7.75L39.2635 3.8169M39.2635 36.75H34.3013M39.2635 26.75H34.3013M39.2635 15.75H34.3013" stroke="#808080" stroke-width="0.5" stroke-linecap="round"/>
</svg>
