<svg width="60" height="60" viewBox="0 0 60 60" fill="none" xmlns="http://www.w3.org/2000/svg">
<path fill-rule="evenodd" clip-rule="evenodd" d="M19.25 14C19.25 12.9127 20.1155 12.0227 21.1935 12.0227C21.771 12.0227 22.2888 12.2791 22.6438 12.6836C22.9508 13.0335 23.1371 13.4952 23.1371 14C23.1371 15.0874 22.2716 15.9773 21.1935 15.9773C20.6161 15.9773 20.0983 15.7209 19.7433 15.3164C19.4363 14.9665 19.25 14.5048 19.25 14ZM21.1935 12.5227C20.4009 12.5227 19.75 13.1795 19.75 14C19.75 14.2869 19.8297 14.554 19.9674 14.7801L22.0911 12.8429C21.8441 12.6419 21.5322 12.5227 21.1935 12.5227ZM22.4197 13.2199L20.296 15.1571C20.543 15.3581 20.8549 15.4773 21.1935 15.4773C21.9862 15.4773 22.6371 14.8206 22.6371 14C22.6371 13.7132 22.5574 13.446 22.4197 13.2199Z" fill="#6B6B6B"/>
<path fill-rule="evenodd" clip-rule="evenodd" d="M28.282 1C13.6065 1.85588 1.85614 13.606 1 28.2815V31.7185C1.85611 46.3936 13.6057 58.1434 28.2806 59H30.15V1H28.282ZM29.35 1.75737C14.0482 2.10286 1.75001 14.6153 1.75001 30C1.75001 45.3848 14.0482 57.8972 29.35 58.2427V56.8924C14.7938 56.5472 3.09998 44.6393 3.09998 30.0001C3.09998 29.7792 3.27906 29.6001 3.49998 29.6001H3.75298C3.91062 19.0457 10.2972 10.0013 19.3989 5.97871L19.5 6.20737L19.4042 5.97644C19.8103 5.80803 20.2387 6.10551 20.2898 6.5075C20.3727 7.16103 20.6001 8.24802 21.1108 9.59574L21.13 9.58715L21.2438 9.77849C22.1593 11.3187 23.8394 12.35 25.7601 12.35C27.1484 12.35 28.4111 11.811 29.35 10.9308V9.50617C29.2719 9.58798 29.1676 9.64163 29.0537 9.65667C28.9084 9.67585 28.7619 9.63029 28.6531 9.53204C28.4146 9.31658 28.1403 9.0713 27.938 8.89739C27.5742 8.58453 27.2899 8.5919 27.1097 8.73274C26.9294 8.87357 26.8535 9.14758 27.069 9.57631C27.1889 9.81479 27.3607 10.1405 27.5121 10.4242C27.5812 10.5536 27.5899 10.7068 27.5361 10.8433C27.4822 10.9797 27.3711 11.0856 27.2323 11.1329C26.806 11.2782 26.3494 11.3568 25.8755 11.3568C25.4778 11.3568 24.8532 11.3001 24.4483 11.1778C24.3078 11.1354 24.1931 11.0335 24.1345 10.899C24.0759 10.7645 24.0793 10.6111 24.1438 10.4793C24.2852 10.1905 24.4455 9.859 24.557 9.61648C24.7463 9.20455 24.6805 8.93973 24.5166 8.79835C24.5007 8.78668 24.4849 8.77479 24.4693 8.76269C24.2841 8.64085 24.0066 8.65306 23.6648 8.9683C23.4688 9.14915 23.2033 9.4038 22.9724 9.62744C22.8671 9.72943 22.7223 9.78008 22.5764 9.76597C22.4305 9.75187 22.2981 9.67445 22.2143 9.55418C21.7398 8.87334 21.4615 8.04497 21.4615 7.1531C21.4615 7.13297 21.4616 7.11287 21.4619 7.09281C21.464 6.94613 21.5304 6.80775 21.6435 6.71434C21.7566 6.62092 21.905 6.58189 22.0494 6.60758C22.3658 6.66385 22.7282 6.72648 22.9917 6.76676C23.3785 6.82588 23.6076 6.7325 23.7214 6.57948C23.7369 6.51901 23.7549 6.45957 23.7755 6.40129C23.7858 6.37226 23.7967 6.34351 23.8082 6.31508C23.8069 6.13141 23.687 5.92397 23.3689 5.73051C23.1411 5.59194 22.8232 5.40698 22.5447 5.2467C22.4175 5.17353 22.3289 5.04819 22.3023 4.90389C22.2757 4.7596 22.3138 4.61091 22.4066 4.49723C22.8287 3.97992 23.3408 3.56762 23.8643 3.49144C24.151 3.44972 24.4509 3.51012 24.6955 3.72058C24.927 3.91975 25.0532 4.20541 25.1138 4.5087C25.1625 4.75215 25.417 4.95908 25.8755 4.95908C26.0853 4.95908 26.194 4.90989 26.2543 4.86115C26.3136 4.8132 26.385 4.71797 26.4269 4.5087C26.4792 4.24698 26.5444 3.8846 26.5998 3.56782C26.625 3.42334 26.7124 3.29724 26.8389 3.2229C26.9653 3.14855 27.118 3.13347 27.2565 3.18163C27.9999 3.44011 28.6475 3.90082 29.1341 4.49723C29.2269 4.61091 29.265 4.7596 29.2384 4.9039C29.2118 5.04819 29.1232 5.17353 28.996 5.2467C28.7175 5.40698 28.3996 5.59194 28.1718 5.73051C27.9825 5.84562 27.8674 5.97657 27.812 6.09503C27.7612 6.20345 27.7491 6.32283 27.8017 6.46743C27.8536 6.60999 27.9342 6.68409 28.0345 6.72819C28.1485 6.77835 28.3204 6.80169 28.549 6.76676C28.774 6.73237 29.071 6.68169 29.35 6.63259V1.75737ZM29.35 7.14022C29.3254 7.14452 29.3007 7.14881 29.2761 7.1531C29.2102 7.16454 29.1441 7.1759 29.079 7.18696C28.9156 7.21472 28.7581 7.2406 28.6245 7.26102C28.3432 7.30402 28.0784 7.28649 27.8575 7.19621C27.8482 7.40763 27.8075 7.6113 27.7399 7.80248C27.6959 7.92699 27.6405 8.04612 27.575 8.15862C27.8145 8.20663 28.052 8.33598 28.264 8.51826C28.3666 8.60649 28.4866 8.71203 28.6106 8.8223C28.7371 8.93472 28.8676 9.05204 28.9883 9.16097C29.0809 9.01763 29.1639 8.86748 29.2364 8.71145C29.2777 8.62242 29.3157 8.53147 29.35 8.43878V7.14022ZM29.35 11.5919C28.3662 12.3792 27.1182 12.85 25.7601 12.85C23.7361 12.85 21.9567 11.8041 20.9323 10.2245C17.0144 12.024 13.7229 14.9538 11.4757 18.5963C11.0673 19.2583 11.2169 20.1205 11.8072 20.6594L13.427 22.1382C13.8096 22.0801 14.2014 22.05 14.6 22.05C17.5543 22.05 20.122 23.7029 21.4296 26.1337C22.8193 23.058 25.816 20.8636 29.35 20.6222V18.0514C29.0935 18.1785 28.8052 18.25 28.5 18.25C27.422 18.25 26.5564 17.3601 26.5564 16.2727C26.5564 16.0427 26.5952 15.8212 26.6666 15.6151C26.932 14.8492 27.6502 14.2955 28.5 14.2955C28.8053 14.2955 29.0936 14.3668 29.35 14.4939V11.5919ZM29.35 15.0787C29.111 14.9004 28.8168 14.7955 28.5 14.7955C27.9605 14.7955 27.487 15.0991 27.2392 15.5525L29.35 16.3134V15.0787ZM29.35 16.8449L27.0765 16.0254C27.0633 16.1057 27.0564 16.1883 27.0564 16.2727C27.0564 17.0933 27.7074 17.75 28.5 17.75C28.8169 17.75 29.111 17.6452 29.35 17.4669V16.8449ZM29.35 21.4243C25.8718 21.6842 22.9694 24.0131 21.8711 27.1852C21.3001 28.8345 19.897 30.4001 18 30.4001H3.90298C4.11352 44.4137 15.3685 55.7504 29.35 56.0921V53.3912C18.1057 53.0845 8.84246 44.846 6.95261 34.0692C6.91445 33.8516 7.05992 33.6442 7.27751 33.6061C7.32731 33.5974 7.37656 33.5982 7.42338 33.6074C7.44819 33.6026 7.47381 33.6001 7.50002 33.6001H12.9V40.4339C12.9 40.6446 13.0106 40.8399 13.1913 40.9484L29.35 50.6436V46.5738C29.3263 46.5614 29.3029 46.5482 29.2797 46.5344L17.7797 39.6344C17.3581 39.3814 17.1 38.9256 17.1 38.4339V33.6001H21.3158C21.8524 33.6001 22.3195 33.9063 22.5754 34.3428C23.9658 36.7146 26.4589 38.3598 29.35 38.5759V36.3675C26.1206 36.0417 23.6 33.3153 23.6 30.0001C23.6 26.6849 26.1207 23.9584 29.35 23.6327V21.4243ZM29.35 24.4374C26.5634 24.7595 24.4 27.1271 24.4 30.0001C24.4 32.873 26.5634 35.2407 29.35 35.5627V32.1027C28.4383 31.8248 27.775 30.9771 27.775 29.9745C27.775 28.9719 28.4383 28.1243 29.35 27.8464V24.4374ZM29.35 28.3765C28.7195 28.6331 28.275 29.2519 28.275 29.9745C28.275 30.3605 28.4019 30.717 28.6161 31.0043L29.35 30.2705V28.3765ZM29.35 30.9776L28.9697 31.3579C29.086 31.4446 29.2136 31.517 29.35 31.5724V30.9776ZM29.35 39.3779C28.3581 39.3102 27.4085 39.0885 26.5249 38.7368V42.3158C26.5249 42.8066 26.3645 43.2837 26.0683 43.6746L29.35 45.6436V45.2389C28.8689 45.1665 28.5 44.7513 28.5 44.25C28.5 43.7487 28.8689 43.3336 29.35 43.2612V39.3779ZM29.35 43.7729C29.1471 43.8367 29 44.0262 29 44.25C29 44.4739 29.1471 44.6634 29.35 44.7271V43.7729ZM29.35 51.5738C29.3263 51.5614 29.3028 51.5482 29.2797 51.5344L12.7797 41.6344C12.3581 41.3814 12.1 40.9256 12.1 40.4339V34.4001H11.2501V41.0296C14.9297 47.2712 21.6361 51.514 29.35 51.7404V51.5738ZM29.35 52.2407C21.4273 52.0133 14.5425 47.6443 10.7843 41.2239L10.7501 41.1654V34.4001H7.82798C9.83458 44.57 18.6645 52.2891 29.35 52.5909V52.2407ZM19.7937 6.57046C19.8824 7.26874 20.1222 8.40496 20.6544 9.80207C16.6766 11.6456 13.3355 14.6294 11.0502 18.3338C10.9801 18.4473 10.9226 18.5647 10.8772 18.6846C10.8399 18.7056 10.8074 18.7365 10.7842 18.7761C9.601 20.7976 8.72753 23.0225 8.22911 25.3858C7.39505 26.5874 6.89212 28.0365 6.85251 29.6001H4.25304C4.4106 19.252 10.6723 10.3837 19.5977 6.43752C19.6327 6.42371 19.6747 6.42688 19.7158 6.45249C19.7587 6.4792 19.7877 6.52299 19.7937 6.57046ZM7.35268 29.6001H8.12826L7.68771 29.2719C7.62829 29.2276 7.59821 29.1541 7.60955 29.0809C7.6209 29.0076 7.6718 28.9467 7.74184 28.9225L8.45855 28.6747C8.66683 28.6026 8.72897 28.3381 8.57454 28.1809L8.04316 27.6399C7.98902 27.5848 7.97147 27.5034 7.99808 27.4309C8.02468 27.3583 8.09068 27.3076 8.16762 27.3006L8.92281 27.2315C9.14227 27.2114 9.2659 26.9694 9.15359 26.7798L8.76713 26.1273C8.72776 26.0609 8.73019 25.9777 8.77338 25.9136C8.81657 25.8496 8.89279 25.8161 8.96918 25.8277L9.71896 25.9413C9.93685 25.9743 10.1148 25.769 10.0511 25.558L9.83203 24.832C9.80971 24.7581 9.83199 24.6779 9.88925 24.626C9.94652 24.5741 10.0285 24.5599 10.0999 24.5894L10.8007 24.8792C11.0044 24.9634 11.2263 24.8066 11.215 24.5865L11.176 23.8292C11.172 23.752 11.2128 23.6795 11.2808 23.6428C11.3489 23.6062 11.4319 23.612 11.4942 23.6578L12.1052 24.1068C12.2828 24.2373 12.5358 24.1382 12.5775 23.9218L12.7209 23.1771C12.7355 23.1013 12.7925 23.0406 12.8673 23.0213C12.9421 23.002 13.0213 23.0275 13.0708 23.0868L13.5567 23.6691C13.6979 23.8383 13.9672 23.8026 14.0595 23.6024L14.3769 22.9137C14.4093 22.8436 14.4791 22.7983 14.5564 22.7975C14.6336 22.7966 14.7045 22.8403 14.7383 22.9098L15.0707 23.5914C15.1673 23.7895 15.4374 23.8193 15.5749 23.647L16.0479 23.0543C16.0961 22.9939 16.1747 22.9667 16.25 22.9844C16.3252 23.002 16.3835 23.0614 16.3997 23.137L16.5594 23.8783C16.6057 24.0938 16.8608 24.1873 17.0355 24.053L17.6367 23.5907C17.6979 23.5436 17.7808 23.536 17.8496 23.5711C17.9184 23.6063 17.9608 23.6779 17.9585 23.7551L17.9361 24.5132C17.9295 24.7334 18.1548 24.8853 18.3566 24.7967L19.0509 24.4917C19.1216 24.4606 19.2039 24.4731 19.2623 24.5237C19.3207 24.5743 19.3447 24.654 19.324 24.7284L19.1208 25.459C19.0618 25.6713 19.2442 25.8727 19.4613 25.8349L20.2084 25.705C20.2845 25.6917 20.3615 25.7235 20.406 25.7866C20.4506 25.8497 20.4549 25.9328 20.417 26.0002L20.0448 26.6609C19.9367 26.8529 20.0656 27.0921 20.2854 27.1074L21.027 27.159C21.0583 27.0814 21.0877 27.0029 21.1152 26.9235C21.1356 26.8646 21.1565 26.8059 21.1781 26.7475C20.0257 24.2683 17.5132 22.55 14.6 22.55C14.1872 22.55 13.7825 22.5845 13.3889 22.6507L13.2688 22.6708L11.4701 21.0287C11.1073 20.6975 10.8697 20.2641 10.7824 19.805C9.83687 21.5836 9.13107 23.509 8.70804 25.5382L8.69748 25.5888L8.66771 25.6311C7.87323 26.7595 7.39261 28.1245 7.35268 29.6001ZM10.8456 29.6001H8.79782L8.22986 29.177L8.58926 29.0527C9.07525 28.8846 9.22024 28.2675 8.85992 27.9006L8.62405 27.6605L8.95926 27.6298C9.47134 27.5829 9.75981 27.0184 9.49775 26.576L9.32621 26.2864L9.65902 26.3368C10.1674 26.4139 10.5826 25.9348 10.4341 25.4425L10.3368 25.1202L10.6479 25.2488C11.1231 25.4453 11.6409 25.0795 11.6144 24.566L11.5971 24.2298L11.8684 24.4291C12.2827 24.7336 12.873 24.5024 12.9703 23.9974L13.0339 23.6669L13.2496 23.9253C13.579 24.3202 14.2075 24.2369 14.4228 23.7699L14.5637 23.4642L14.7112 23.7667C14.9366 24.2289 15.5667 24.2985 15.8875 23.8965L16.0975 23.6334L16.1683 23.9625C16.2766 24.4652 16.8717 24.6835 17.2794 24.3701L17.5462 24.1649L17.5362 24.5013C17.521 25.0153 18.0467 25.3697 18.5175 25.1629L18.8256 25.0275L18.7355 25.3518C18.5977 25.8473 19.0232 26.3172 19.5298 26.229L19.8615 26.1713L19.6963 26.4646C19.444 26.9127 19.7447 27.4708 20.2577 27.5064L20.5935 27.5298L20.3517 27.787C20.1591 27.9918 20.1215 28.2691 20.2085 28.5019C20.0888 28.6374 19.9618 28.7632 19.8281 28.8776L17.6564 27.1822L17.6551 27.1812C16.9278 26.5986 16.0043 26.25 15.0001 26.25C12.9616 26.25 11.2586 27.685 10.8456 29.6001ZM19.4089 29.1846L17.3462 27.5743L17.3437 27.5723C16.7016 27.0577 15.8871 26.75 15.0001 26.75C13.2393 26.75 11.7617 27.9637 11.3587 29.6001H13.8512C13.8772 29.071 14.3145 28.6501 14.85 28.6501C15.3855 28.6501 15.8227 29.071 15.8487 29.6001H18C18.5058 29.6001 18.9821 29.4478 19.4089 29.1846ZM15.3475 29.6001C15.3224 29.3474 15.1092 29.1501 14.85 29.1501C14.5907 29.1501 14.3775 29.3474 14.3524 29.6001H15.3475ZM25.1702 9.12054C25.1775 9.34798 25.119 9.5909 25.0113 9.82534C24.9548 9.9481 24.8866 10.0923 24.8149 10.2416C24.7415 10.3946 24.6645 10.5529 24.5928 10.6992C24.7326 10.7414 24.9114 10.7756 25.0995 10.8012C25.3684 10.8377 25.6561 10.8568 25.8755 10.8568C26.1144 10.8568 26.3481 10.8342 26.5744 10.791C26.7444 10.7585 26.9102 10.7145 27.071 10.6596C26.9945 10.5163 26.9122 10.3611 26.8337 10.2112C26.7566 10.064 26.6832 9.92192 26.6223 9.8009C26.5045 9.5666 26.4374 9.32176 26.4388 9.09094C26.2253 9.16405 25.9962 9.20374 25.7577 9.20374C25.5538 9.20374 25.3567 9.1747 25.1702 9.12054ZM27.4049 5.79607C27.517 5.60457 27.6925 5.43679 27.912 5.30332C28.0275 5.23307 28.1648 5.15166 28.3078 5.06788C28.4538 4.98237 28.6058 4.89439 28.7467 4.81332C28.6383 4.68047 28.5209 4.55529 28.3954 4.43871C28.1476 4.20855 27.8682 4.01193 27.5645 3.85603C27.4128 3.7782 27.2552 3.71053 27.0923 3.6539C27.0643 3.814 27.0336 3.98689 27.0032 4.15335C26.9734 4.31675 26.9437 4.47394 26.9172 4.60676C26.8669 4.8582 26.7723 5.05205 26.6341 5.19089C26.9365 5.3298 27.2003 5.53837 27.4049 5.79607ZM24.9523 5.1599C24.7892 5.02371 24.6702 4.84002 24.6235 4.60676C24.4608 3.79283 23.823 3.80704 23.1434 4.43761C23.0275 4.54524 22.9103 4.67082 22.794 4.81331C22.9349 4.89436 23.0868 4.9823 23.2328 5.06779C23.3758 5.1516 23.5132 5.23304 23.6287 5.30332C23.837 5.43003 24.0131 5.58765 24.1341 5.76714C24.3513 5.50313 24.6317 5.293 24.9523 5.1599ZM23.6587 7.21253C23.4373 7.28847 23.1796 7.30129 22.9162 7.26102C22.7826 7.2406 22.6251 7.21472 22.4617 7.18696C22.3966 7.17589 22.3305 7.16453 22.2647 7.1531C22.1618 7.13524 22.0594 7.11721 21.9619 7.09985C21.9616 7.11757 21.9615 7.13532 21.9615 7.1531C21.9615 7.30868 21.9711 7.46203 21.9897 7.61257C22.0432 8.04516 22.1714 8.45464 22.3608 8.82772C22.4387 8.98103 22.5269 9.1282 22.6245 9.26829C22.7412 9.15522 22.8677 9.03341 22.9901 8.91666C23.1101 8.80215 23.2264 8.69252 23.3258 8.60078C23.5248 8.41718 23.7496 8.28236 23.9794 8.22287C23.7929 7.92764 23.6779 7.58276 23.6587 7.21253ZM24.8257 8.4048C24.8112 8.39305 24.7963 8.38156 24.7808 8.37033L24.7644 8.35867C24.3937 8.06528 24.1559 7.61136 24.1559 7.10189C24.1559 7.00215 24.165 6.90468 24.1823 6.81022L27.1666 7.86499C26.8953 8.36479 26.3658 8.70374 25.7577 8.70374C25.4101 8.70374 25.0882 8.59298 24.8257 8.4048ZM27.3332 7.39355L24.3489 6.33879C24.6202 5.83899 25.1496 5.50003 25.7577 5.50003C26.6424 5.50003 27.3596 6.21721 27.3596 7.10189C27.3596 7.20163 27.3505 7.29909 27.3332 7.39355ZM17.9 34.4001H20.75V36.7566C20.75 37.8575 21.6425 38.75 22.7434 38.75C23.5076 38.75 24.1954 38.3145 24.5284 37.6442C24.9969 37.9802 25.4976 38.2742 26.0249 38.5206V40.8907C25.3343 41.5169 24.4766 41.9614 23.5268 42.1497L18.1913 38.9484C18.0106 38.8399 17.9 38.6446 17.9 38.4339V34.4001ZM22.7434 38.25C23.3483 38.25 23.8893 37.8857 24.1205 37.3346C23.9838 37.2249 23.8502 37.1115 23.7199 36.9944C23.6109 37.4286 23.218 37.75 22.75 37.75C22.1977 37.75 21.75 37.3023 21.75 36.75C21.75 36.2574 22.1062 35.848 22.5751 35.7653C22.3238 35.4421 22.0932 35.1022 21.8852 34.7474C21.7571 34.5288 21.5385 34.4001 21.3158 34.4001H21.25V36.7566C21.25 37.5813 21.9187 38.25 22.7434 38.25ZM22.9199 36.1834C22.8753 36.2248 22.8156 36.25 22.75 36.25C22.4739 36.25 22.25 36.4739 22.25 36.75C22.25 37.0262 22.4739 37.25 22.75 37.25C23.0261 37.25 23.25 37.0262 23.25 36.75C23.25 36.692 23.2698 36.6386 23.303 36.5962C23.1712 36.4624 23.0435 36.3248 22.9199 36.1834ZM25.6582 43.3877L25.6366 43.4156L24.1345 42.5143C24.8285 42.3089 25.4677 41.9761 26.0249 41.5432V42.3158C26.0249 42.7039 25.8959 43.081 25.6582 43.3877Z" fill="#6B6B6B"/>
<path d="M39.25 22.25V20H39.75V22.25H42V22.75H39.75V25H39.25V22.75H37V22.25H39.25Z" fill="#6B6B6B"/>
<path fill-rule="evenodd" clip-rule="evenodd" d="M50.3577 38.0041L48.0041 35.6505L36.6423 46.4958L38.9959 48.8495L50.3577 38.0041ZM39.004 48.1505L37.3577 46.5042L37.9007 45.9858L39.547 47.6322L39.004 48.1505ZM39.9088 47.2869L38.2625 45.6405L38.9007 45.0313L40.547 46.6776L39.9088 47.2869ZM40.9088 46.3323L39.2625 44.686L39.9959 43.9858L41.6423 45.6322L40.9088 46.3323ZM42.004 45.2869L40.3577 43.6405L40.9959 43.0313L42.6423 44.6777L42.004 45.2869ZM43.0041 44.3323L41.3577 42.686L41.9959 42.0768L43.6423 43.7231L43.0041 44.3323ZM44.004 43.3778L42.3577 41.7314L42.9959 41.1222L44.6423 42.7686L44.004 43.3778ZM45.0041 42.4232L43.3577 40.7769L43.9959 40.1677L45.6423 41.814L45.0041 42.4232ZM46.0041 41.4687L44.3577 39.8223L44.9959 39.2131L46.6423 40.8595L46.0041 41.4687ZM47.0041 40.5141L45.3577 38.8678L45.9959 38.2586L47.6423 39.9049L47.0041 40.5141ZM48.0041 39.5596L46.3577 37.9132L46.9959 37.304L48.6423 38.9504L48.0041 39.5596ZM49.0041 38.605L47.3577 36.9587L47.9959 36.3495L49.6423 37.9958L49.0041 38.605Z" fill="#6B6B6B"/>
<path fill-rule="evenodd" clip-rule="evenodd" d="M41.9449 37.2723C41.2122 36.842 40.3124 36.9557 39.6957 37.4817C39.5297 37.6233 39.3842 37.7946 39.2677 37.993C38.717 38.9306 39.0126 40.1363 39.9422 40.6822C40.6749 41.1125 41.5747 40.9988 42.1914 40.4728C42.3574 40.3313 42.5029 40.1599 42.6194 39.9615C43.1701 39.0239 42.8745 37.8182 41.9449 37.2723ZM42.0457 39.9114L40.2212 37.7177C40.6645 37.4523 41.2265 37.4302 41.6917 37.7034C42.3752 38.1049 42.6038 39.0008 42.1883 39.7083C42.1455 39.7811 42.0977 39.8489 42.0457 39.9114ZM39.8414 38.0431L41.6659 40.2368C41.2226 40.5023 40.6606 40.5243 40.1954 40.2511C39.5119 39.8497 39.2833 38.9537 39.6988 38.2462C39.7416 38.1734 39.7894 38.1056 39.8414 38.0431Z" fill="#6B6B6B"/>
<path fill-rule="evenodd" clip-rule="evenodd" d="M36.6423 29.012C36.09 29.012 35.6423 29.4597 35.6423 30.012C35.6423 30.5643 36.09 31.012 36.6423 31.012C37.1946 31.012 37.6423 30.5643 37.6423 30.012C37.6423 29.4597 37.1946 29.012 36.6423 29.012ZM36.1423 30.012C36.1423 29.7359 36.3661 29.512 36.6423 29.512C36.9184 29.512 37.1423 29.7359 37.1423 30.012C37.1423 30.2882 36.9184 30.512 36.6423 30.512C36.3661 30.512 36.1423 30.2882 36.1423 30.012Z" fill="#6B6B6B"/>
<path fill-rule="evenodd" clip-rule="evenodd" d="M34.65 1.32014L33.85 1.19998V58.7769H34C34.0635 58.7681 34.1269 58.7592 34.1903 58.75L34.65 58.6798C48.4834 56.4543 59.05 44.4611 59.05 30C59.05 28.2693 58.8987 26.5741 58.6085 24.9266C58.6155 24.9094 58.6214 24.8915 58.6261 24.873C58.68 24.6588 58.5501 24.4414 58.3359 24.3874C57.4528 24.165 56.4634 23.9986 55.4782 23.8329L55.4301 23.8248C54.4218 23.6551 53.4171 23.4849 52.4954 23.2539C50.6109 22.7816 49.2716 22.0998 48.881 20.8782C48.1841 18.6979 48.3701 15.6963 51.4962 11.6695L51.5574 11.7414C51.5831 11.6493 51.6138 11.5604 51.6493 11.4744L51.6889 11.4246C51.7381 11.363 51.7662 11.2912 51.774 11.2181C51.8244 11.1287 51.8804 11.0429 51.9416 10.9607C47.5777 5.93586 41.5163 2.42479 34.65 1.32014ZM34.65 2.13085V7.50125C35.5475 7.915 36.1841 8.79811 36.2452 9.83595L40.1299 3.62047C38.5566 3.01595 36.9156 2.54812 35.2213 2.23152L34.7287 2.144C34.7025 2.13958 34.6762 2.1352 34.65 2.13085ZM34.65 8.06566V11.9343C34.8996 11.7856 35.1179 11.59 35.2929 11.3596L35.5099 11.0124C35.6635 10.7081 35.75 10.3642 35.75 9.99999C35.75 9.17752 35.3087 8.45813 34.65 8.06566ZM34.65 13.0119V25.9881C36.002 27.0004 37.681 27.6 39.5 27.6C43.9735 27.6 47.6 23.9735 47.6 19.5C47.6 15.0265 43.9735 11.4 39.5 11.4C37.681 11.4 36.002 11.9996 34.65 13.0119ZM34.65 26.9636V50.5805C34.7077 50.579 34.7656 50.5772 34.8237 50.5752C35.8955 50.5383 37.0224 50.4214 38.0124 50.2525C38.9724 50.0888 39.7752 49.881 40.2734 49.6632L50.8645 39.5536C51.0543 39.3725 51.1981 39.1482 51.2835 38.9002C51.7208 37.6309 52.5348 35.0719 52.104 32.0566C51.7874 29.8406 51.207 28.5325 50.4893 27.7848C49.7887 27.055 48.9066 26.8081 47.8413 26.8373C46.758 26.8671 45.5347 27.1808 44.1949 27.5351L44.0608 27.5706C43.057 27.8363 41.9971 28.1169 40.9286 28.2859C40.8865 28.2927 40.8442 28.2992 40.8019 28.3054C40.5469 28.3436 40.2914 28.3751 40.0362 28.3983L40.0349 28.3842C39.8579 28.3946 39.6796 28.4 39.5 28.4C37.7109 28.4 36.0452 27.8721 34.65 26.9636ZM34.65 51.3808V55.2695L39.5135 50.7534C39.0979 50.8615 38.6343 50.958 38.1469 51.0412C37.1214 51.2161 35.9587 51.3366 34.8513 51.3747C34.784 51.3771 34.7169 51.3791 34.65 51.3808ZM34.65 55.9519V57.8691C42.9172 56.5 49.9724 51.5413 54.1606 44.6479C53.4461 44.8514 52.6092 44.8772 51.8543 44.6107C51.2756 44.4065 50.7443 44.0298 50.36 43.4321C50.0664 42.9754 49.8647 42.3992 49.7863 41.6887L45.1268 46.1365L45.1701 46.1832L41.78 49.3311L40.728 50.3353L40.6695 50.3623L34.65 55.9519ZM50.0271 10.0757C50.3454 10.3956 50.6561 10.7231 50.9588 11.0579C49.2766 13.1966 48.3646 15.0983 47.9768 16.7804C46.8275 13.1952 43.4668 10.6 39.5 10.6C38.2144 10.6 36.9926 10.8725 35.889 11.363C35.9087 11.3284 35.9278 11.2934 35.946 11.258L40.6028 3.80714C41.6597 4.23537 42.6847 4.72571 43.6734 5.27362C43.5591 8.07392 44.5832 9.63594 45.9745 10.3045C47.3265 10.9541 48.9572 10.7224 50.0271 10.0757ZM49.6582 9.71157C48.0087 8.11303 46.1649 6.71385 44.1657 5.55289C44.1276 8.04492 45.0697 9.31497 46.1911 9.85382C47.3268 10.3995 48.7145 10.2328 49.6582 9.71157ZM55.3272 24.6187C56.2045 24.7663 57.0536 24.9091 57.8243 25.087C57.9643 25.8852 58.0708 26.695 58.1422 27.5148C57.9588 27.2989 57.7426 27.1108 57.5033 26.9515C56.7617 26.4576 55.7972 26.2356 54.8744 26.2837C53.9527 26.3318 53.0398 26.6516 52.4195 27.282C52.1502 27.5556 51.9414 27.8825 51.8112 28.2605C51.5892 27.8579 51.3408 27.5166 51.0665 27.2308C50.5989 26.7437 50.0706 26.4324 49.5019 26.25C50.4675 26.249 51.25 25.4659 51.25 24.5C51.25 24.191 51.1699 23.9006 51.0293 23.6487C51.4383 23.7966 51.8668 23.9211 52.3009 24.0299C53.2585 24.2699 54.295 24.445 55.2974 24.6137L55.3272 24.6187ZM57.2262 27.3676C57.7277 27.7017 58.0944 28.1702 58.2238 28.7731C58.2412 29.1799 58.25 29.5889 58.25 30C58.25 35.0782 56.9101 39.8435 54.5645 43.9616C53.8655 44.3039 52.8727 44.44 52.0207 44.1392C51.5369 43.9685 51.0994 43.6576 50.7806 43.1617C50.4881 42.7066 50.2869 42.0823 50.2546 41.2418L51.4169 40.1323C51.699 39.863 51.9128 39.5297 52.0399 39.1608C52.4866 37.8642 53.3547 35.1547 52.896 31.9434C52.7282 30.7693 52.4839 29.8012 52.1656 29.012C52.2084 28.4294 52.4393 27.9747 52.7758 27.6327C53.2852 27.1151 54.0659 26.8266 54.9005 26.7831C55.734 26.7396 56.5881 26.9427 57.2262 27.3676ZM49.316 22.7595C48.8281 22.3877 48.4404 21.9304 48.2055 21.359C47.765 23.4318 46.603 25.2378 44.9948 26.5017C45.9713 26.2587 46.9296 26.0621 47.8194 26.0376C48.1371 26.0289 48.4493 26.0421 48.7533 26.0832C48.1603 25.803 47.75 25.1994 47.75 24.5C47.75 23.5956 48.436 22.8515 49.316 22.7595ZM48.25 24.5C48.25 23.8096 48.8096 23.25 49.5 23.25C50.1904 23.25 50.75 23.8096 50.75 24.5C50.75 25.1903 50.1904 25.75 49.5 25.75C48.8096 25.75 48.25 25.1903 48.25 24.5Z" fill="#6B6B6B"/>
</svg>
